# xmcd CD database file
#
# Track frame offsets:
#	150
#	11705
#	23360
#	35241
#	46230
#	57264
#	67934
#	81706
#	91821
#	103062
#	114712
#	125139
#	136249
#	147917
#	156476
#	167340
#	178323
#	189519
#	200130
#	211649
#
# Disc length: 2968 seconds
#
# Revision: 0
# Processed by: cddbd v1.5.2PL0 Copyright (c) Steve Scherf et al.
# Submitted via: CDex 1.51
#
DISCID=220b9614
DTITLE=Patsy Cline - The Fabulous Patsy Cline
DYEAR=2009
DGENRE=Country
TTITLE0=Walkin' After Midnight
TTITLE1=A Poor Man's Roses (Or A Rich Man's Gold)
TTITLE2=Today Tomorrow And Forever
TTITLE3=Stop The World And Let Me Off
TTITLE4=Just Out Of Reach (Of My Two Open Arms)
TTITLE5=Honky Tonk Merry-Go-Round
TTITLE6=A Church, A Courtroom And Then Goodbye
TTITLE7=Three Cigarettes (In An Ashtray)
TTITLE8=Dear God
TTITLE9=I've Loved And Lost Again
TTITLE10=I Love You Honey
TTITLE11=Hidin' Out
TTITLE12=Never No More
TTITLE13=Come On In (And Make Yourself At Home)
TTITLE14=I Don't Wanta
TTITLE15=I Can't Forget
TTITLE16=Hungry For Love
TTITLE17=Stop Look And Listen
TTITLE18=Let The Teardrops Fall
TTITLE19=Don't Ever Leave Me Again
EXTD=YEAR: 2009
EXTT0=
EXTT1=
EXTT2=
EXTT3=
EXTT4=
EXTT5=
EXTT6=
EXTT7=
EXTT8=
EXTT9=
EXTT10=
EXTT11=
EXTT12=
EXTT13=
EXTT14=
EXTT15=
EXTT16=
EXTT17=
EXTT18=
EXTT19=
PLAYORDER=
